# File created by Blade
# Date/Time:  Wed Apr 08 17:16:55 2015
#---------------------------------------------------------
:version 1.10
:name HOM
:units
  mass 1.0
  length 1.000000
  angle deg
:documentation
     Acclaim Skeleton File
:root
   axis xyz
   order TX TY TZ RX RY RZ
   position 0.000000 0.000000 0.000000
   orientation 0 0 0
:bonedata
   begin
      id 1
      name Spine_dum
      direction 0.000000 1.000000 0.000000
      length 5.893853
      axis 0.0 0.0 0.0 xyz
   end
   begin
      id 2
      name LeftUpLeg_dum
      direction 1.000000 0.000000 0.000000
      length 3.697939
      axis 0.0 0.0 0.0 xyz
   end
   begin
      id 3
      name RightUpLeg_dum
      direction -1.000000 0.000000 0.000000
      length 3.697939
      axis 0.0 0.0 0.0 xyz
   end
   begin
      id 4
      name Spine
      direction 0.000000 1.000000 0.000000
      length 0.000000
      axis 0.0 0.0 0.0 xyz
      dof rx ry rz
   end
   begin
      id 5
      name Spine_dum1
      direction 0.000000 1.000000 0.000000
      length 16.447146
      axis 0.0 0.0 0.0 xyz
   end
   begin
      id 6
      name Spine_dum2
      direction 0.000000 1.000000 0.000000
      length 10.900383
      axis 0.0 0.0 0.0 xyz
   end
   begin
      id 7
      name Spine_dum3
      direction 0.000000 1.000000 0.000000
      length 10.900383
      axis 0.0 0.0 0.0 xyz
   end
   begin
      id 8
      name Head
      direction 0.000000 1.000000 0.000000
      length 4.527550
      axis 0.0 0.0 0.0 xyz
      dof rx ry rz
   end
   begin
      id 9
      name LeftShoulder
      direction 1.000000 0.000000 0.000000
      length 8.219464
      axis 0.0 0.0 -90.0 xyz
      dof rx ry rz
   end
   begin
      id 10
      name LeftArm
      direction 1.000000 0.000000 0.000000
      length 11.094937
      axis 0.0 0.0 -90.0 xyz
      dof rx ry rz
   end
   begin
      id 11
      name LeftForeArm
      direction 1.000000 0.000000 0.000000
      length 9.103875
      axis 0.0 0.0 -90.0 xyz
      dof ry rz rx
   end
   begin
      id 12
      name LeftHand
      direction 0.000000 0.000000 0.000000
      length 0.000000
      axis 0.0 0.0 -90.0 xyz
      dof rx ry rz
   end
   begin
      id 13
      name LeftHand_dum1
      direction 0.000000 0.000000 0.000000
      length 0.000000
      axis 0.0 0.0 -90.0 xyz
   end
   begin
      id 14
      name LeftHand_dum2
      direction 1.000000 0.000000 0.000000
      length 3.937000
      axis 0.0 0.0 -90.0 xyz
   end
   begin
      id 15
      name LeftHandThumb1
      direction 0.000000 0.000000 1.000000
      length 3.937000
      axis 0.0 0.0 -90.0 xyz
      dof rx rz ry
   end
   begin
      id 16
      name RightShoulder
      direction -1.000000 0.000000 0.000000
      length 8.219464
      axis 0.0 0.0 90.0 xyz
      dof rx ry rz
   end
   begin
      id 17
      name RightArm
      direction -1.000000 0.000000 0.000000
      length 11.094937
      axis 0.0 0.0 90.0 xyz
      dof rx ry rz
   end
   begin
      id 18
      name RightForeArm
      direction -1.000000 0.000000 0.000000
      length 9.103875
      axis 0.0 0.0 90.0 xyz
      dof ry rz rx
   end
   begin
      id 19
      name RightHand
      direction 0.000000 0.000000 0.000000
      length 0.000000
      axis 0.0 0.0 90.0 xyz
      dof rx ry rz
   end
   begin
      id 20
      name RightHand_dum1
      direction 0.000000 0.000000 0.000000
      length 0.000000
      axis 0.0 0.0 90.0 xyz
   end
   begin
      id 21
      name RightHand_dum2
      direction -1.000000 0.000000 0.000000
      length 3.937000
      axis 0.0 0.0 90.0 xyz
   end
   begin
      id 22
      name RightHandThumb1
      direction 0.000000 0.000000 1.000000
      length 3.937000
      axis 0.0 0.0 90.0 xyz
      dof rx rz ry
   end
   begin
      id 23
      name LeftUpLeg
      direction 0.000000 -1.000000 0.000000
      length 16.181467
      axis 0.0 0.0 0.0 xyz
      dof rx ry rz
   end
   begin
      id 24
      name LeftLeg
      direction 0.000000 -1.000000 0.000000
      length 16.501392
      axis 0.0 0.0 0.0 xyz
      dof rx ry rz
   end
   begin
      id 25
      name LeftFoot
      direction 0.000000 -0.258819 0.965926
      length 6.408245
      axis 15.0 0.0 0.0 xyz
      dof rx ry rz
   end
   begin
      id 26
      name LeftToeBase
      direction 0.000000 0.000000 1.000000
      length 2.952750
      axis 0.0 0.0 0.0 xyz
      dof rx ry rz
   end
   begin
      id 27
      name RightUpLeg
      direction 0.000000 -1.000000 0.000000
      length 16.181467
      axis 0.0 0.0 0.0 xyz
      dof rx ry rz
   end
   begin
      id 28
      name RightLeg
      direction 0.000000 -1.000000 0.000000
      length 16.501392
      axis 0.0 0.0 0.0 xyz
      dof rx ry rz
   end
   begin
      id 29
      name RightFoot
      direction 0.000000 -0.258819 0.965926
      length 6.408245
      axis 15.0 0.0 0.0 xyz
      dof rx ry rz
   end
   begin
      id 30
      name RightToeBase
      direction 0.000000 0.000000 1.000000
      length 2.952750
      axis 0.0 0.0 0.0 xyz
      dof rx ry rz
   end
:hierarchy
   begin
      root Spine_dum LeftUpLeg_dum RightUpLeg_dum
      Spine_dum Spine
      LeftUpLeg_dum LeftUpLeg
      RightUpLeg_dum RightUpLeg
      Spine Spine_dum1 Spine_dum2 Spine_dum3
      Spine_dum1 Head
      Spine_dum2 LeftShoulder
      Spine_dum3 RightShoulder
      LeftShoulder LeftArm
      LeftArm LeftForeArm
      LeftForeArm LeftHand
      LeftHand LeftHand_dum1 LeftHand_dum2
      LeftHand_dum1 LeftHandThumb1
      RightShoulder RightArm
      RightArm RightForeArm
      RightForeArm RightHand
      RightHand RightHand_dum1 RightHand_dum2
      RightHand_dum1 RightHandThumb1
      LeftUpLeg LeftLeg
      LeftLeg LeftFoot
      LeftFoot LeftToeBase
      RightUpLeg RightLeg
      RightLeg RightFoot
      RightFoot RightToeBase
   end

# File created by Blade
# Date/Time:  Wed Apr 08 17:17:01 2015
# Frame Rate: 120.000 fps
#------------------------------------------------------
:FULLY-SPECIFIED
:DEGREES
391
root 4.977797 36.036594 5.394480 -7.739101 -41.280976 -11.976125
Spine 20.518460 -1.237777 23.210574
Head 4.997238 24.533402 2.137780
LeftShoulder -5.218304 16.980618 16.443394
LeftArm 17.882771 24.817555 -74.945881
LeftForeArm 23.355235 -0.000000 17.297213
LeftHand -8.576929 -0.000000 -20.702904
LeftHandThumb1 -26.253704 0.000000 33.147579
RightShoulder -20.627303 -46.541837 16.198763
RightArm 61.997385 -7.096578 47.074601
RightForeArm 21.571330 -0.000000 11.009402
RightHand 2.824338 0.000000 14.557445
RightHandThumb1 -24.326973 -0.000000 -32.862282
LeftUpLeg 11.526110 15.095771 4.017426
LeftLeg 22.215753 -0.000000 -0.000000
LeftFoot -19.313045 8.065295 -0.530173
LeftToeBase 1.942404 -0.000000 -0.000000
RightUpLeg -65.796508 7.537600 1.969044
RightLeg 141.051781 -0.000000 -0.000000
RightFoot 37.140638 5.938500 20.760785
RightToeBase -7.974934 -0.000000 0.000000
392
root 4.990029 35.945518 5.378579 -7.608218 -41.579386 -12.064363
Spine 20.463587 -1.379421 23.256609
Head 4.767937 24.495878 2.506076
LeftShoulder -5.133586 16.825344 16.664070
LeftArm 17.919225 24.588580 -74.782950
LeftForeArm 23.529935 -0.000000 17.026231
LeftHand -8.533370 0.000000 -20.830161
LeftHandThumb1 -26.253704 0.000000 33.147579
RightShoulder -20.665033 -46.487726 16.417113
RightArm 62.086048 -6.888738 47.145700
RightForeArm 22.037840 -0.000000 11.509371
RightHand 2.960867 -0.000000 14.615307
RightHandThumb1 -24.326973 -0.000000 -32.862282
LeftUpLeg 11.931561 14.069343 3.692794
LeftLeg 21.320045 -0.000000 -0.000000
LeftFoot -20.240821 8.512958 -1.363455
LeftToeBase 3.339114 -0.000000 -0.000000
RightUpLeg -66.031335 7.624783 2.087071
RightLeg 141.221605 -0.000000 -0.000000
RightFoot 37.329815 5.824018 21.199327
RightToeBase -6.899880 -0.000000 0.000000
393
root 5.011130 35.851219 5.363641 -7.559477 -41.905900 -12.032824
Spine 20.467211 -1.465788 23.209752
Head 4.422876 24.474106 2.785983
LeftShoulder -5.102941 16.668480 16.805206
LeftArm 18.039141 24.490309 -74.449270
LeftForeArm 23.557816 0.000000 16.825722
LeftHand -8.604318 -0.000000 -20.787113
LeftHandThumb1 -26.253704 0.000000 33.147579
RightShoulder -20.744446 -46.447776 16.655966
RightArm 62.279911 -6.671001 47.203987
RightForeArm 22.670560 -0.000000 11.876355
RightHand 3.101628 -0.000000 14.810416
RightHandThumb1 -24.326973 -0.000000 -32.862282
LeftUpLeg 12.131016 13.599435 3.336148
LeftLeg 20.924536 -0.000000 -0.000000
LeftFoot -21.161171 9.203688 -1.786832
LeftToeBase 4.737771 -0.000000 -0.000000
RightUpLeg -66.269554 7.751505 1.949806
RightLeg 141.387002 -0.000000 -0.000000
RightFoot 37.421096 5.813343 21.714319
RightToeBase -7.189290 -0.000000 0.000000
394
root 5.043034 35.763649 5.355104 -7.640081 -42.211862 -11.853408
Spine 20.531550 -1.517462 23.108390
Head 4.020564 24.436488 2.863037
LeftShoulder -5.085965 16.539447 16.774605
LeftArm 18.295973 24.504527 -73.877678
LeftForeArm 23.328283 -0.000000 16.676907
LeftHand -8.780992 0.000000 -20.591495
LeftHandThumb1 -26.253704 0.000000 33.147579
RightShoulder -20.864500 -46.408537 16.918687
RightArm 62.537249 -6.490544 47.128092
RightForeArm 23.185008 -0.000000 12.162394
RightHand 3.036084 -0.000000 14.982636
RightHandThumb1 -24.326973 -0.000000 -32.862282
LeftUpLeg 11.931376 13.840645 3.051252
LeftLeg 21.429376 -0.000000 -0.000000
LeftFoot -22.078358 9.504460 -1.553226
LeftToeBase 5.952816 -0.000000 -0.000000
RightUpLeg -66.481896 7.789905 1.656056
RightLeg 141.475412 -0.000000 -0.000000
RightFoot 37.600969 5.733956 21.625091
RightToeBase -8.177949 -0.000000 0.000000
395
root 5.082747 35.695414 5.352500 -7.789980 -42.507037 -11.583795
Spine 20.636271 -1.551486 23.004841
Head 3.556552 24.444464 2.714362
LeftShoulder -5.076660 16.454106 16.547331
LeftArm 18.674587 24.364810 -73.215520
LeftForeArm 23.125219 -0.000000 16.469543
LeftHand -9.029950 -0.000000 -20.220978
LeftHandThumb1 -26.253704 0.000000 33.147579
RightShoulder -21.004038 -46.321393 17.224412
RightArm 62.803560 -6.309384 46.982858
RightForeArm 23.761660 -0.000000 12.294286
RightHand 2.987738 -0.000000 15.052850
RightHandThumb1 -24.326973 -0.000000 -32.862282
LeftUpLeg 11.472044 14.024104 2.724780
LeftLeg 22.276229 -0.000000 -0.000000
LeftFoot -22.474368 9.503932 -1.536969
LeftToeBase 5.992506 -0.000000 -0.000000
RightUpLeg -66.597440 7.818134 1.205961
RightLeg 141.453710 -0.000000 -0.000000
RightFoot 37.590939 5.816211 21.119189
RightToeBase -8.199942 -0.000000 0.000000
396
root 5.121830 35.644269 5.351747 -7.935231 -42.804008 -11.346396
Spine 20.732795 -1.588726 22.956049
Head 3.271427 24.581712 2.533213
LeftShoulder -5.031633 16.522058 16.318685
LeftArm 19.223078 23.594880 -72.861940
LeftForeArm 23.427969 -0.000000 15.915131
LeftHand -9.119396 0.000000 -19.929479
LeftHandThumb1 -26.253704 0.000000 33.147579
RightShoulder -21.004163 -46.285522 17.392605
RightArm 63.061052 -6.190453 46.810916
RightForeArm 24.376277 -0.000000 12.243160
RightHand 2.812188 0.000000 15.211748
RightHandThumb1 -24.326973 -0.000000 -32.862282
LeftUpLeg 10.953609 14.418403 2.559094
LeftLeg 23.227841 -0.000000 -0.000000
LeftFoot -22.630630 9.477036 -1.337557
LeftToeBase 5.275566 -0.000000 -0.000000
RightUpLeg -66.613447 7.790295 0.858429
RightLeg 141.304433 -0.000000 -0.000000
RightFoot 37.524658 5.779389 20.285055
RightToeBase -7.920322 -0.000000 0.000000
397
root 5.160976 35.601838 5.346267 -8.053818 -43.080214 -11.181339
Spine 20.801861 -1.669459 22.969744
Head 3.210146 24.827085 2.377165
LeftShoulder -4.918645 16.639515 16.214431
LeftArm 19.798093 22.923134 -72.648524
LeftForeArm 23.594701 0.000000 15.329268
LeftHand -9.312802 0.000000 -19.366259
LeftHandThumb1 -26.253704 0.000000 33.147579
RightShoulder -20.873429 -46.380339 17.308093
RightArm 63.407340 -6.294112 46.508662
RightForeArm 25.253926 0.000000 12.058644
RightHand 2.683759 0.000000 14.954958
RightHandThumb1 -24.326973 -0.000000 -32.862282
LeftUpLeg 10.438040 14.688627 2.449031
LeftLeg 24.176266 -0.000000 -0.000000
LeftFoot -22.806963 9.447099 -1.388953
LeftToeBase 5.016546 -0.000000 -0.000000
RightUpLeg -66.506584 7.820434 0.346939
RightLeg 141.071637 -0.000000 -0.000000
RightFoot 37.527973 5.766878 20.427974
RightToeBase -7.521654 -0.000000 0.000000
398
root 5.201302 35.565025 5.343926 -8.225989 -43.338926 -11.024650
Spine 20.875101 -1.729922 23.023503
Head 3.364166 25.013293 2.232380
LeftShoulder -4.731247 16.695516 16.290515
LeftArm 20.318170 22.596979 -72.548554
LeftForeArm 23.458714 -0.000000 14.836912
LeftHand -9.697215 -0.000000 -18.372983
LeftHandThumb1 -26.253704 0.000000 33.147579
RightShoulder -20.529408 -46.506655 16.965096
RightArm 63.644186 -6.228687 46.915205
RightForeArm 25.813180 -0.000000 11.545922
RightHand 2.539454 -0.000000 14.849770
RightHandThumb1 -24.326973 -0.000000 -32.862282
LeftUpLeg 10.091753 14.782662 2.308691
LeftLeg 24.881941 -0.000000 -0.000000
LeftFoot -22.897779 9.444049 -1.569865
LeftToeBase 5.053684 -0.000000 -0.000000
RightUpLeg -66.320278 7.802069 -0.064264
RightLeg 140.819407 -0.000000 -0.000000
RightFoot 37.316110 5.664010 20.310812
RightToeBase -6.735024 -0.000000 0.000000
399
root 5.232147 35.534093 5.348687 -8.471737 -43.615063 -10.937483
Spine 21.034784 -1.830346 23.130244
Head 3.634722 25.279463 2.121619
LeftShoulder -4.579958 16.569811 16.493491
LeftArm 20.599373 22.320475 -72.721238
LeftForeArm 23.511912 -0.000000 14.455058
LeftHand -10.073621 0.000000 -17.318617
LeftHandThumb1 -26.253704 0.000000 33.147579
RightShoulder -19.878304 -46.498414 16.209652
RightArm 63.603304 -6.105538 48.060118
RightForeArm 25.866817 -0.000000 10.837276
RightHand 2.372312 -0.000000 14.882879
RightHandThumb1 -24.326973 -0.000000 -32.862282
LeftUpLeg 10.023322 14.990662 2.294624
LeftLeg 25.363049 -0.000000 -0.000000
LeftFoot -22.982875 9.345356 -1.723548
LeftToeBase 5.158772 -0.000000 -0.000000
RightUpLeg -65.981433 7.750397 -0.275553
RightLeg 140.537577 -0.000000 -0.000000
RightFoot 36.933008 5.420198 20.016941
RightToeBase -5.489350 -0.000000 0.000000
